<?xml version="1.0" standalone="no"?>
<!DOCTYPE svg PUBLIC "-//W3C//DTD SVG 20010904//EN"
 "http://www.w3.org/TR/2001/REC-SVG-20010904/DTD/svg10.dtd">
<svg version="1.0" xmlns="http://www.w3.org/2000/svg"
 width="32.000000pt" height="32.000000pt" viewBox="0 0 32.000000 32.000000"
 preserveAspectRatio="xMidYMid meet">
<metadata>
Created by potrace 1.13, written by Peter Selinger 2001-2015
</metadata>
<g transform="translate(0.000000,32.000000) scale(0.100000,-0.100000)"
fill="#000000" stroke="none">
<path d="M17 302 c-14 -15 -17 -41 -17 -144 0 -163 -5 -158 162 -158 163 0
158 -5 158 162 0 163 5 158 -162 158 -108 0 -127 -2 -141 -18z m281 -4 c7 -7
12 -27 12 -45 0 -29 -3 -33 -27 -33 -27 0 -28 -2 -25 -48 3 -38 -1 -51 -17
-66 -17 -15 -24 -16 -35 -7 -8 7 -24 10 -35 6 -15 -4 -28 1 -46 19 -31 31 -32
49 -4 77 17 17 29 20 58 15 25 -4 31 -2 21 4 -28 18 -68 11 -89 -16 -28 -35
-26 -59 5 -91 19 -19 33 -24 55 -21 20 3 29 0 29 -9 0 -8 -13 -13 -39 -13 -65
0 -112 68 -89 129 7 19 4 21 -27 21 -33 0 -35 2 -35 33 0 18 5 38 12 45 17 17
259 17 276 0z"/>
</g>
</svg>
