<?xml version="1.0" standalone="no"?>
<!DOCTYPE svg PUBLIC "-//W3C//DTD SVG 20010904//EN"
 "http://www.w3.org/TR/2001/REC-SVG-20010904/DTD/svg10.dtd">
<svg version="1.0" xmlns="http://www.w3.org/2000/svg"
 width="32.000000pt" height="32.000000pt" viewBox="0 0 32.000000 32.000000"
 preserveAspectRatio="xMidYMid meet">
<metadata>
Created by potrace 1.13, written by Peter Selinger 2001-2015
</metadata>
<g transform="translate(0.000000,32.000000) scale(0.100000,-0.100000)"
fill="#000000" stroke="none">
<path d="M120 250 c-24 -24 -26 -62 -3 -100 15 -26 15 -30 -6 -64 -17 -27 -19
-36 -9 -36 8 0 24 18 37 40 12 22 26 40 32 40 5 0 9 -18 9 -40 0 -22 5 -40 10
-40 6 0 10 43 10 110 l0 110 -30 0 c-17 0 -39 -9 -50 -20z"/>
</g>
</svg>
