<svg viewBox="0 0 32 32" preserveAspectRatio="xMidYMid meet" width="32" height="32" xmlns="http://www.w3.org/2000/svg"><metadata>  2015
</metadata><path d="M1.7-30.2c-1.4 1.5-1.7 4.1-1.7 14.4 0 16.3-0.5 15.8 16.2 15.8 16.3 0 15.8 0.5 15.8-16.2 0-16.3 0.5-15.8-16.2-15.8 -10.8 0-12.7 0.2-14.1 1.8Zm281-4c7-7 12-27 12-45 0-29-3-33-27-33 -27 0-28-2-25-48 3-38-1-51-17-66 -17-15-24-16-35-7 -8 7-24 10-35 6 -15-4-28 1-46 19 -31 31-32 49-4 77 17 17 29 20 58 15 25-4 31-2 21 4 -28 18-68 11-89-16 -28-35-26-59 5-91 19-19 33-24 55-21 20 3 29 0 29-9 0-8-13-13-39-13 -65 0-112 68-89 129 7 19 4 21-27 21 -33 0-35 2-35 33 0 18 5 38 12 45 17 17 259 17 276 0Z"/></svg>